{
    "asset" : {
        "generator" : "Khronos glTF Blender I/O v1.6.16",
        "version" : "2.0"
    },
    "extensionsUsed" : [
        "KHR_materials_unlit"
    ],
    "scene" : 0,
    "scenes" : [
        {
            "name" : "Scene",
            "nodes" : [
                0
            ]
        }
    ],
    "nodes" : [
        {
            "mesh" : 0,
            "name" : "Object_4.001",
            "rotation" : [
                -0.7496720552444458,
                0,
                0,
                0.661809504032135
            ],
            "scale" : [
                0.005607349332422018,
                0.005607349798083305,
                0.005607349798083305
            ],
            "translation" : [
                0,
                1.127105474472046,
                0.000718921422958374
            ]
        }
    ],
    "materials" : [
        {
            "doubleSided" : true,
            "name" : "Material__27.001",
            "pbrMetallicRoughness" : {
                "baseColorTexture" : {
                    "index" : 0
                },
                "metallicFactor" : 0,
                "roughnessFactor" : 0.6000000238418579
            }
        },
        {
            "doubleSided" : true,
            "extensions" : {
                "KHR_materials_unlit" : {}
            },
            "name" : "default.001",
            "pbrMetallicRoughness" : {
                "baseColorTexture" : {
                    "index" : 1
                },
                "metallicFactor" : 0,
                "roughnessFactor" : 0.9
            }
        },
        {
            "doubleSided" : true,
            "extensions" : {
                "KHR_materials_unlit" : {}
            },
            "name" : "default.002",
            "pbrMetallicRoughness" : {
                "baseColorTexture" : {
                    "index" : 2
                },
                "metallicFactor" : 0,
                "roughnessFactor" : 0.9
            }
        },
        {
            "doubleSided" : true,
            "extensions" : {
                "KHR_materials_unlit" : {}
            },
            "name" : "default.003",
            "pbrMetallicRoughness" : {
                "baseColorTexture" : {
                    "index" : 3
                },
                "metallicFactor" : 0,
                "roughnessFactor" : 0.9
            }
        },
        {
            "alphaMode" : "BLEND",
            "doubleSided" : true,
            "name" : "Material__25.001",
            "pbrMetallicRoughness" : {
                "baseColorFactor" : [
                    1,
                    1,
                    1,
                    0.5610859990119934
                ],
                "baseColorTexture" : {
                    "index" : 4
                },
                "metallicFactor" : 0,
                "roughnessFactor" : 0.6000000238418579
            }
        },
        {
            "doubleSided" : true,
            "name" : "Material__26.001",
            "pbrMetallicRoughness" : {
                "baseColorTexture" : {
                    "index" : 5
                },
                "metallicFactor" : 0,
                "roughnessFactor" : 0.6000000238418579
            }
        },
        {
            "doubleSided" : true,
            "name" : "Material__28.001",
            "pbrMetallicRoughness" : {
                "baseColorTexture" : {
                    "index" : 6
                },
                "metallicFactor" : 0,
                "roughnessFactor" : 0.6000000238418579
            }
        },
        {
            "doubleSided" : true,
            "emissiveFactor" : [
                1,
                1,
                1
            ],
            "emissiveTexture" : {
                "index" : 7
            },
            "name" : "Material__29.001",
            "pbrMetallicRoughness" : {
                "baseColorTexture" : {
                    "index" : 8
                },
                "metallicFactor" : 0,
                "roughnessFactor" : 0.6000000238418579
            }
        },
        {
            "doubleSided" : true,
            "emissiveFactor" : [
                1,
                1,
                1
            ],
            "emissiveTexture" : {
                "index" : 9
            },
            "name" : "Material__30.001",
            "pbrMetallicRoughness" : {
                "baseColorTexture" : {
                    "index" : 10
                },
                "metallicFactor" : 0,
                "roughnessFactor" : 0.6000000238418579
            }
        },
        {
            "doubleSided" : true,
            "emissiveFactor" : [
                1,
                1,
                1
            ],
            "emissiveTexture" : {
                "index" : 11
            },
            "name" : "Tex_0230_0_dds.001",
            "pbrMetallicRoughness" : {
                "baseColorTexture" : {
                    "index" : 12
                },
                "metallicFactor" : 0,
                "roughnessFactor" : 0.6000000238418579
            }
        }
    ],
    "meshes" : [
        {
            "name" : "Object_2.001",
            "primitives" : [
                {
                    "attributes" : {
                        "POSITION" : 0,
                        "NORMAL" : 1,
                        "TEXCOORD_0" : 2
                    },
                    "indices" : 3,
                    "material" : 0
                },
                {
                    "attributes" : {
                        "POSITION" : 4,
                        "NORMAL" : 5,
                        "TEXCOORD_0" : 6
                    },
                    "indices" : 7,
                    "material" : 1
                },
                {
                    "attributes" : {
                        "POSITION" : 8,
                        "NORMAL" : 9,
                        "TEXCOORD_0" : 10
                    },
                    "indices" : 11,
                    "material" : 2
                },
                {
                    "attributes" : {
                        "POSITION" : 12,
                        "NORMAL" : 13,
                        "TEXCOORD_0" : 14
                    },
                    "indices" : 15,
                    "material" : 3
                },
                {
                    "attributes" : {
                        "POSITION" : 16,
                        "NORMAL" : 17,
                        "TEXCOORD_0" : 18
                    },
                    "indices" : 19,
                    "material" : 4
                },
                {
                    "attributes" : {
                        "POSITION" : 20,
                        "NORMAL" : 21,
                        "TEXCOORD_0" : 22
                    },
                    "indices" : 23,
                    "material" : 5
                },
                {
                    "attributes" : {
                        "POSITION" : 24,
                        "NORMAL" : 25,
                        "TEXCOORD_0" : 26
                    },
                    "indices" : 27,
                    "material" : 6
                },
                {
                    "attributes" : {
                        "POSITION" : 28,
                        "NORMAL" : 29,
                        "TEXCOORD_0" : 30
                    },
                    "indices" : 31,
                    "material" : 7
                },
                {
                    "attributes" : {
                        "POSITION" : 32,
                        "NORMAL" : 33,
                        "TEXCOORD_0" : 34
                    },
                    "indices" : 35,
                    "material" : 8
                },
                {
                    "attributes" : {
                        "POSITION" : 36,
                        "NORMAL" : 37,
                        "TEXCOORD_0" : 38
                    },
                    "indices" : 39,
                    "material" : 9
                }
            ]
        }
    ],
    "textures" : [
        {
            "sampler" : 0,
            "source" : 0
        },
        {
            "sampler" : 0,
            "source" : 1
        },
        {
            "sampler" : 0,
            "source" : 1
        },
        {
            "sampler" : 0,
            "source" : 1
        },
        {
            "sampler" : 0,
            "source" : 2
        },
        {
            "sampler" : 0,
            "source" : 0
        },
        {
            "sampler" : 0,
            "source" : 3
        },
        {
            "sampler" : 0,
            "source" : 2
        },
        {
            "sampler" : 0,
            "source" : 2
        },
        {
            "sampler" : 0,
            "source" : 2
        },
        {
            "sampler" : 0,
            "source" : 2
        },
        {
            "sampler" : 0,
            "source" : 2
        },
        {
            "sampler" : 0,
            "source" : 2
        }
    ],
    "images" : [
        {
            "bufferView" : 4,
            "mimeType" : "image/png",
            "name" : "Material__26_baseColor"
        },
        {
            "bufferView" : 9,
            "mimeType" : "image/png",
            "name" : "default_baseColor"
        },
        {
            "bufferView" : 22,
            "mimeType" : "image/png",
            "name" : "Material__25_baseColor"
        },
        {
            "bufferView" : 31,
            "mimeType" : "image/png",
            "name" : "Material__28_baseColor"
        }
    ],
    "accessors" : [
        {
            "bufferView" : 0,
            "componentType" : 5126,
            "count" : 4517,
            "max" : [
                306.398193359375,
                351.4997863769531,
                110.00980377197266
            ],
            "min" : [
                -306.398193359375,
                -253.17799377441406,
                -119.09719848632812
            ],
            "type" : "VEC3"
        },
        {
            "bufferView" : 1,
            "componentType" : 5126,
            "count" : 4517,
            "type" : "VEC3"
        },
        {
            "bufferView" : 2,
            "componentType" : 5126,
            "count" : 4517,
            "type" : "VEC2"
        },
        {
            "bufferView" : 3,
            "componentType" : 5123,
            "count" : 9798,
            "type" : "SCALAR"
        },
        {
            "bufferView" : 5,
            "componentType" : 5126,
            "count" : 2145,
            "max" : [
                99.2143783569336,
                224.71249389648438,
                289.5196533203125
            ],
            "min" : [
                -99.2143783569336,
                -147.9034423828125,
                -16.113021850585938
            ],
            "type" : "VEC3"
        },
        {
            "bufferView" : 6,
            "componentType" : 5126,
            "count" : 2145,
            "type" : "VEC3"
        },
        {
            "bufferView" : 7,
            "componentType" : 5126,
            "count" : 2145,
            "type" : "VEC2"
        },
        {
            "bufferView" : 8,
            "componentType" : 5123,
            "count" : 11124,
            "type" : "SCALAR"
        },
        {
            "bufferView" : 10,
            "componentType" : 5126,
            "count" : 272,
            "max" : [
                68.37737274169922,
                31.275070190429688,
                186.2425994873047
            ],
            "min" : [
                -68.37737274169922,
                -89.55274200439453,
                103.29534149169922
            ],
            "type" : "VEC3"
        },
        {
            "bufferView" : 11,
            "componentType" : 5126,
            "count" : 272,
            "type" : "VEC3"
        },
        {
            "bufferView" : 12,
            "componentType" : 5126,
            "count" : 272,
            "type" : "VEC2"
        },
        {
            "bufferView" : 13,
            "componentType" : 5123,
            "count" : 1152,
            "type" : "SCALAR"
        },
        {
            "bufferView" : 14,
            "componentType" : 5126,
            "count" : 130,
            "max" : [
                42.2266960144043,
                -94.74724578857422,
                226.34762573242188
            ],
            "min" : [
                -42.2266960144043,
                -113.11521911621094,
                192.81494140625
            ],
            "type" : "VEC3"
        },
        {
            "bufferView" : 15,
            "componentType" : 5126,
            "count" : 130,
            "type" : "VEC3"
        },
        {
            "bufferView" : 16,
            "componentType" : 5126,
            "count" : 130,
            "type" : "VEC2"
        },
        {
            "bufferView" : 17,
            "componentType" : 5123,
            "count" : 672,
            "type" : "SCALAR"
        },
        {
            "bufferView" : 18,
            "componentType" : 5126,
            "count" : 442,
            "max" : [
                302.598388671875,
                121.32569885253906,
                152.49508666992188
            ],
            "min" : [
                -302.598388671875,
                -249.5800018310547,
                -74.15511322021484
            ],
            "type" : "VEC3"
        },
        {
            "bufferView" : 19,
            "componentType" : 5126,
            "count" : 442,
            "type" : "VEC3"
        },
        {
            "bufferView" : 20,
            "componentType" : 5126,
            "count" : 442,
            "type" : "VEC2"
        },
        {
            "bufferView" : 21,
            "componentType" : 5123,
            "count" : 2064,
            "type" : "SCALAR"
        },
        {
            "bufferView" : 23,
            "componentType" : 5126,
            "count" : 1857,
            "max" : [
                307.7275085449219,
                333.02679443359375,
                154.61257934570312
            ],
            "min" : [
                -307.7275085449219,
                -351.4997863769531,
                -154.61260986328125
            ],
            "type" : "VEC3"
        },
        {
            "bufferView" : 24,
            "componentType" : 5126,
            "count" : 1857,
            "type" : "VEC3"
        },
        {
            "bufferView" : 25,
            "componentType" : 5126,
            "count" : 1857,
            "type" : "VEC2"
        },
        {
            "bufferView" : 26,
            "componentType" : 5123,
            "count" : 7530,
            "type" : "SCALAR"
        },
        {
            "bufferView" : 27,
            "componentType" : 5126,
            "count" : 897,
            "max" : [
                141.8986053466797,
                -151.3040008544922,
                102.31768798828125
            ],
            "min" : [
                -141.1851043701172,
                -266.08990478515625,
                -51.78311538696289
            ],
            "type" : "VEC3"
        },
        {
            "bufferView" : 28,
            "componentType" : 5126,
            "count" : 897,
            "type" : "VEC3"
        },
        {
            "bufferView" : 29,
            "componentType" : 5126,
            "count" : 897,
            "type" : "VEC2"
        },
        {
            "bufferView" : 30,
            "componentType" : 5123,
            "count" : 3033,
            "type" : "SCALAR"
        },
        {
            "bufferView" : 32,
            "componentType" : 5126,
            "count" : 66,
            "max" : [
                109.3770980834961,
                241.41859436035156,
                -68.08601379394531
            ],
            "min" : [
                -109.37779998779297,
                239.06179809570312,
                -97.84591674804688
            ],
            "type" : "VEC3"
        },
        {
            "bufferView" : 33,
            "componentType" : 5126,
            "count" : 66,
            "type" : "VEC3"
        },
        {
            "bufferView" : 34,
            "componentType" : 5126,
            "count" : 66,
            "type" : "VEC2"
        },
        {
            "bufferView" : 35,
            "componentType" : 5123,
            "count" : 288,
            "type" : "SCALAR"
        },
        {
            "bufferView" : 36,
            "componentType" : 5126,
            "count" : 130,
            "max" : [
                122.91790008544922,
                -190.85069274902344,
                -91.21431732177734
            ],
            "min" : [
                -122.9186019897461,
                -218.95269775390625,
                -111.42521667480469
            ],
            "type" : "VEC3"
        },
        {
            "bufferView" : 37,
            "componentType" : 5126,
            "count" : 130,
            "type" : "VEC3"
        },
        {
            "bufferView" : 38,
            "componentType" : 5126,
            "count" : 130,
            "type" : "VEC2"
        },
        {
            "bufferView" : 39,
            "componentType" : 5123,
            "count" : 492,
            "type" : "SCALAR"
        },
        {
            "bufferView" : 40,
            "componentType" : 5126,
            "count" : 390,
            "max" : [
                265.0155944824219,
                113.72380065917969,
                -41.44591522216797
            ],
            "min" : [
                -265.0155944824219,
                100.6417007446289,
                -74.0433120727539
            ],
            "type" : "VEC3"
        },
        {
            "bufferView" : 41,
            "componentType" : 5126,
            "count" : 390,
            "type" : "VEC3"
        },
        {
            "bufferView" : 42,
            "componentType" : 5126,
            "count" : 390,
            "type" : "VEC2"
        },
        {
            "bufferView" : 43,
            "componentType" : 5123,
            "count" : 2016,
            "type" : "SCALAR"
        }
    ],
    "bufferViews" : [
        {
            "buffer" : 0,
            "byteLength" : 54204,
            "byteOffset" : 0
        },
        {
            "buffer" : 0,
            "byteLength" : 54204,
            "byteOffset" : 54204
        },
        {
            "buffer" : 0,
            "byteLength" : 36136,
            "byteOffset" : 108408
        },
        {
            "buffer" : 0,
            "byteLength" : 19596,
            "byteOffset" : 144544
        },
        {
            "buffer" : 0,
            "byteLength" : 684908,
            "byteOffset" : 164140
        },
        {
            "buffer" : 0,
            "byteLength" : 25740,
            "byteOffset" : 849048
        },
        {
            "buffer" : 0,
            "byteLength" : 25740,
            "byteOffset" : 874788
        },
        {
            "buffer" : 0,
            "byteLength" : 17160,
            "byteOffset" : 900528
        },
        {
            "buffer" : 0,
            "byteLength" : 22248,
            "byteOffset" : 917688
        },
        {
            "buffer" : 0,
            "byteLength" : 1844558,
            "byteOffset" : 939936
        },
        {
            "buffer" : 0,
            "byteLength" : 3264,
            "byteOffset" : 2784496
        },
        {
            "buffer" : 0,
            "byteLength" : 3264,
            "byteOffset" : 2787760
        },
        {
            "buffer" : 0,
            "byteLength" : 2176,
            "byteOffset" : 2791024
        },
        {
            "buffer" : 0,
            "byteLength" : 2304,
            "byteOffset" : 2793200
        },
        {
            "buffer" : 0,
            "byteLength" : 1560,
            "byteOffset" : 2795504
        },
        {
            "buffer" : 0,
            "byteLength" : 1560,
            "byteOffset" : 2797064
        },
        {
            "buffer" : 0,
            "byteLength" : 1040,
            "byteOffset" : 2798624
        },
        {
            "buffer" : 0,
            "byteLength" : 1344,
            "byteOffset" : 2799664
        },
        {
            "buffer" : 0,
            "byteLength" : 5304,
            "byteOffset" : 2801008
        },
        {
            "buffer" : 0,
            "byteLength" : 5304,
            "byteOffset" : 2806312
        },
        {
            "buffer" : 0,
            "byteLength" : 3536,
            "byteOffset" : 2811616
        },
        {
            "buffer" : 0,
            "byteLength" : 4128,
            "byteOffset" : 2815152
        },
        {
            "buffer" : 0,
            "byteLength" : 171,
            "byteOffset" : 2819280
        },
        {
            "buffer" : 0,
            "byteLength" : 22284,
            "byteOffset" : 2819452
        },
        {
            "buffer" : 0,
            "byteLength" : 22284,
            "byteOffset" : 2841736
        },
        {
            "buffer" : 0,
            "byteLength" : 14856,
            "byteOffset" : 2864020
        },
        {
            "buffer" : 0,
            "byteLength" : 15060,
            "byteOffset" : 2878876
        },
        {
            "buffer" : 0,
            "byteLength" : 10764,
            "byteOffset" : 2893936
        },
        {
            "buffer" : 0,
            "byteLength" : 10764,
            "byteOffset" : 2904700
        },
        {
            "buffer" : 0,
            "byteLength" : 7176,
            "byteOffset" : 2915464
        },
        {
            "buffer" : 0,
            "byteLength" : 6066,
            "byteOffset" : 2922640
        },
        {
            "buffer" : 0,
            "byteLength" : 7291,
            "byteOffset" : 2928708
        },
        {
            "buffer" : 0,
            "byteLength" : 792,
            "byteOffset" : 2936000
        },
        {
            "buffer" : 0,
            "byteLength" : 792,
            "byteOffset" : 2936792
        },
        {
            "buffer" : 0,
            "byteLength" : 528,
            "byteOffset" : 2937584
        },
        {
            "buffer" : 0,
            "byteLength" : 576,
            "byteOffset" : 2938112
        },
        {
            "buffer" : 0,
            "byteLength" : 1560,
            "byteOffset" : 2938688
        },
        {
            "buffer" : 0,
            "byteLength" : 1560,
            "byteOffset" : 2940248
        },
        {
            "buffer" : 0,
            "byteLength" : 1040,
            "byteOffset" : 2941808
        },
        {
            "buffer" : 0,
            "byteLength" : 984,
            "byteOffset" : 2942848
        },
        {
            "buffer" : 0,
            "byteLength" : 4680,
            "byteOffset" : 2943832
        },
        {
            "buffer" : 0,
            "byteLength" : 4680,
            "byteOffset" : 2948512
        },
        {
            "buffer" : 0,
            "byteLength" : 3120,
            "byteOffset" : 2953192
        },
        {
            "buffer" : 0,
            "byteLength" : 4032,
            "byteOffset" : 2956312
        }
    ],
    "samplers" : [
        {
            "magFilter" : 9729,
            "minFilter" : 9987
        }
    ],
    "buffers" : [
        {
            "byteLength" : 2960344,
            "uri" : "data:application/octet-stream;base64,"
        }
    ]
}
